<svg xmlns="http://www.w3.org/2000/svg" xmlns:xlink="http://www.w3.org/1999/xlink" width="940" zoomAndPan="magnify" viewBox="0 0 660 599.04" height="788" preserveAspectRatio="xMidYMid meet" version="1.0"><defs><g/><clipPath id="5262206d20"><path d="M 165.851562 130.40625 L 517.371094 130.40625 L 517.371094 481.925781 L 165.851562 481.925781 Z M 165.851562 130.40625 " clip-rule="nonzero"/></clipPath><clipPath id="d7d8b391e7"><path d="M 341.609375 130.40625 C 244.542969 130.40625 165.851562 209.097656 165.851562 306.164062 C 165.851562 403.234375 244.542969 481.925781 341.609375 481.925781 C 438.679688 481.925781 517.371094 403.234375 517.371094 306.164062 C 517.371094 209.097656 438.679688 130.40625 341.609375 130.40625 Z M 341.609375 130.40625 " clip-rule="nonzero"/></clipPath><clipPath id="fed05dbb67"><path d="M 0.851562 0.40625 L 352.371094 0.40625 L 352.371094 351.925781 L 0.851562 351.925781 Z M 0.851562 0.40625 " clip-rule="nonzero"/></clipPath><clipPath id="568e69bb52"><path d="M 176.609375 0.40625 C 79.542969 0.40625 0.851562 79.097656 0.851562 176.164062 C 0.851562 273.234375 79.542969 351.925781 176.609375 351.925781 C 273.679688 351.925781 352.371094 273.234375 352.371094 176.164062 C 352.371094 79.097656 273.679688 0.40625 176.609375 0.40625 Z M 176.609375 0.40625 " clip-rule="nonzero"/></clipPath><clipPath id="cf2a9f26e8"><rect x="0" width="353" y="0" height="352"/></clipPath><clipPath id="495c246495"><path d="M 272.210938 263.949219 L 422.722656 263.949219 L 422.722656 326.097656 L 272.210938 326.097656 Z M 272.210938 263.949219 " clip-rule="nonzero"/></clipPath><clipPath id="0aa7a8c563"><path d="M 218.363281 191.898438 L 464.71875 191.898438 L 464.71875 418 L 218.363281 418 Z M 218.363281 191.898438 " clip-rule="nonzero"/></clipPath><clipPath id="03c1175b43"><path d="M 382 304 L 464.71875 304 L 464.71875 427.769531 L 382 427.769531 Z M 382 304 " clip-rule="nonzero"/></clipPath></defs><g clip-path="url(#5262206d20)"><g clip-path="url(#d7d8b391e7)"><g transform="matrix(1, 0, 0, 1, 165, 130)"><g clip-path="url(#cf2a9f26e8)"><g clip-path="url(#fed05dbb67)"><g clip-path="url(#568e69bb52)"><path fill="#ff914d" d="M 0.851562 0.40625 L 352.371094 0.40625 L 352.371094 351.925781 L 0.851562 351.925781 Z M 0.851562 0.40625 " fill-opacity="1" fill-rule="nonzero"/></g></g></g></g></g></g><g clip-path="url(#495c246495)"><path fill="#ffffff" d="M 282.917969 263.992188 L 412.109375 263.992188 C 412.8125 263.992188 413.507812 264.0625 414.199219 264.199219 C 414.886719 264.335938 415.554688 264.539062 416.207031 264.808594 C 416.855469 265.078125 417.472656 265.40625 418.058594 265.796875 C 418.640625 266.1875 419.183594 266.632812 419.679688 267.128906 C 420.175781 267.625 420.621094 268.167969 421.011719 268.75 C 421.402344 269.335938 421.730469 269.953125 422 270.601562 C 422.269531 271.25 422.472656 271.921875 422.609375 272.609375 C 422.746094 273.300781 422.816406 273.996094 422.816406 274.699219 L 422.816406 315.347656 C 422.816406 316.050781 422.746094 316.746094 422.609375 317.4375 C 422.472656 318.125 422.269531 318.792969 422 319.445312 C 421.730469 320.09375 421.402344 320.710938 421.011719 321.292969 C 420.621094 321.878906 420.175781 322.421875 419.679688 322.917969 C 419.183594 323.414062 418.640625 323.859375 418.058594 324.25 C 417.472656 324.640625 416.855469 324.96875 416.207031 325.238281 C 415.554688 325.507812 414.886719 325.710938 414.199219 325.847656 C 413.507812 325.984375 412.8125 326.054688 412.109375 326.054688 L 282.917969 326.054688 C 282.214844 326.054688 281.519531 325.984375 280.828125 325.847656 C 280.140625 325.710938 279.46875 325.507812 278.820312 325.238281 C 278.171875 324.96875 277.554688 324.640625 276.96875 324.25 C 276.386719 323.859375 275.84375 323.414062 275.347656 322.917969 C 274.851562 322.421875 274.40625 321.878906 274.015625 321.292969 C 273.625 320.710938 273.296875 320.09375 273.027344 319.445312 C 272.757812 318.792969 272.554688 318.125 272.417969 317.4375 C 272.28125 316.746094 272.210938 316.050781 272.210938 315.347656 L 272.210938 274.699219 C 272.210938 273.996094 272.28125 273.300781 272.417969 272.609375 C 272.554688 271.921875 272.757812 271.25 273.027344 270.601562 C 273.296875 269.953125 273.625 269.335938 274.015625 268.75 C 274.40625 268.167969 274.851562 267.625 275.347656 267.128906 C 275.84375 266.632812 276.386719 266.1875 276.96875 265.796875 C 277.554688 265.40625 278.171875 265.078125 278.820312 264.808594 C 279.46875 264.539062 280.140625 264.335938 280.828125 264.199219 C 281.519531 264.0625 282.214844 263.992188 282.917969 263.992188 Z M 282.917969 263.992188 " fill-opacity="1" fill-rule="nonzero"/></g><g clip-path="url(#0aa7a8c563)"><path fill="#000000" d="M 438.679688 191.984375 L 243.980469 191.984375 C 229.859375 191.984375 218.363281 203.480469 218.363281 217.601562 L 218.363281 391.800781 C 218.363281 405.921875 229.859375 417.417969 243.980469 417.417969 L 366.945312 417.417969 C 369.773438 417.417969 372.070312 415.121094 372.070312 412.292969 C 372.070312 409.464844 369.773438 407.167969 366.945312 407.167969 L 243.980469 407.167969 C 235.503906 407.167969 228.609375 400.273438 228.609375 391.800781 L 228.609375 243.21875 L 454.046875 243.21875 L 454.046875 350.8125 C 454.046875 353.640625 456.34375 355.933594 459.171875 355.933594 C 462 355.933594 464.296875 353.640625 464.296875 350.8125 L 464.296875 217.601562 C 464.296875 203.480469 452.800781 191.984375 438.679688 191.984375 Z M 454.050781 232.96875 L 228.609375 232.96875 L 228.609375 217.601562 C 228.609375 209.128906 235.503906 202.230469 243.980469 202.230469 L 438.679688 202.230469 C 447.152344 202.230469 454.046875 209.128906 454.046875 217.601562 L 454.046875 232.96875 Z M 454.050781 232.96875 " fill-opacity="1" fill-rule="nonzero"/></g><path fill="#000000" d="M 249.101562 217.601562 C 249.101562 220.429688 246.808594 222.722656 243.980469 222.722656 C 241.148438 222.722656 238.855469 220.429688 238.855469 217.601562 C 238.855469 214.769531 241.148438 212.476562 243.980469 212.476562 C 246.808594 212.476562 249.101562 214.769531 249.101562 217.601562 Z M 249.101562 217.601562 " fill-opacity="1" fill-rule="nonzero"/><path fill="#000000" d="M 269.597656 217.601562 C 269.597656 220.429688 267.304688 222.722656 264.476562 222.722656 C 261.644531 222.722656 259.351562 220.429688 259.351562 217.601562 C 259.351562 214.769531 261.644531 212.476562 264.476562 212.476562 C 267.304688 212.476562 269.597656 214.769531 269.597656 217.601562 Z M 269.597656 217.601562 " fill-opacity="1" fill-rule="nonzero"/><path fill="#000000" d="M 290.09375 217.601562 C 290.09375 220.429688 287.800781 222.722656 284.96875 222.722656 C 282.140625 222.722656 279.84375 220.429688 279.84375 217.601562 C 279.84375 214.769531 282.140625 212.476562 284.96875 212.476562 C 287.800781 212.476562 290.09375 214.769531 290.09375 217.601562 Z M 290.09375 217.601562 " fill-opacity="1" fill-rule="nonzero"/><g clip-path="url(#03c1175b43)"><path fill="#000000" d="M 462.800781 377.925781 L 391.070312 306.195312 C 389.601562 304.742188 387.410156 304.300781 385.484375 305.089844 C 383.570312 305.878906 382.320312 307.753906 382.320312 309.824219 L 382.320312 412.292969 C 382.320312 414.363281 383.570312 416.238281 385.484375 417.019531 C 387.410156 417.828125 389.59375 417.386719 391.070312 415.910156 L 406.59375 400.386719 L 419.167969 424.875 C 419.792969 426.109375 420.890625 427.019531 422.191406 427.429688 C 422.691406 427.582031 423.214844 427.664062 423.726562 427.664062 C 424.558594 427.664062 425.378906 427.460938 426.136719 427.058594 L 446.210938 416.394531 C 448.671875 415.09375 449.644531 412.046875 448.371094 409.558594 L 436.773438 386.679688 L 459.171875 386.679688 C 461.242188 386.679688 463.117188 385.429688 463.910156 383.511719 C 464.707031 381.59375 464.265625 379.390625 462.800781 377.925781 Z M 428.433594 376.429688 C 426.648438 376.429688 425 377.351562 424.066406 378.867188 C 423.132812 380.386719 423.050781 382.28125 423.859375 383.867188 L 436.957031 409.710938 L 425.910156 415.582031 L 412.496094 389.464844 C 411.75 388.007812 410.355469 386.996094 408.738281 386.738281 C 408.46875 386.695312 408.203125 386.675781 407.9375 386.675781 C 406.59375 386.675781 405.28125 387.207031 404.308594 388.179688 L 392.566406 399.925781 L 392.566406 322.191406 L 446.804688 376.429688 Z M 428.433594 376.429688 " fill-opacity="1" fill-rule="nonzero"/></g><g fill="#000000" fill-opacity="1"><g transform="translate(284.251759, 296.930564)"><g><path d="M 2.890625 0 C 2.453125 0 2.113281 -0.113281 1.875 -0.34375 C 1.644531 -0.582031 1.53125 -0.921875 1.53125 -1.359375 L 1.53125 -12.71875 C 1.53125 -13.15625 1.644531 -13.488281 1.875 -13.71875 C 2.113281 -13.957031 2.453125 -14.078125 2.890625 -14.078125 L 7.6875 -14.078125 C 8.675781 -14.078125 9.515625 -13.929688 10.203125 -13.640625 C 10.898438 -13.347656 11.429688 -12.925781 11.796875 -12.375 C 12.160156 -11.832031 12.34375 -11.179688 12.34375 -10.421875 C 12.34375 -9.566406 12.09375 -8.847656 11.59375 -8.265625 C 11.101562 -7.679688 10.429688 -7.289062 9.578125 -7.09375 L 9.578125 -7.390625 C 10.566406 -7.242188 11.332031 -6.867188 11.875 -6.265625 C 12.425781 -5.671875 12.703125 -4.894531 12.703125 -3.9375 C 12.703125 -2.6875 12.28125 -1.71875 11.4375 -1.03125 C 10.59375 -0.34375 9.414062 0 7.90625 0 Z M 4 -1.9375 L 7.59375 -1.9375 C 8.5 -1.9375 9.160156 -2.113281 9.578125 -2.46875 C 10.003906 -2.820312 10.21875 -3.347656 10.21875 -4.046875 C 10.21875 -4.765625 10.003906 -5.296875 9.578125 -5.640625 C 9.160156 -5.992188 8.5 -6.171875 7.59375 -6.171875 L 4 -6.171875 Z M 4 -8.109375 L 7.25 -8.109375 C 8.125 -8.109375 8.773438 -8.273438 9.203125 -8.609375 C 9.640625 -8.953125 9.859375 -9.457031 9.859375 -10.125 C 9.859375 -10.789062 9.640625 -11.289062 9.203125 -11.625 C 8.773438 -11.96875 8.125 -12.140625 7.25 -12.140625 L 4 -12.140625 Z M 4 -8.109375 "/></g></g></g><g fill="#000000" fill-opacity="1"><g transform="translate(297.984325, 296.930564)"><g><path d="M 5.75 0.203125 C 4.738281 0.203125 3.859375 0 3.109375 -0.40625 C 2.367188 -0.820312 1.789062 -1.410156 1.375 -2.171875 C 0.96875 -2.941406 0.765625 -3.847656 0.765625 -4.890625 C 0.765625 -5.679688 0.878906 -6.382812 1.109375 -7 C 1.335938 -7.613281 1.671875 -8.144531 2.109375 -8.59375 C 2.554688 -9.039062 3.082031 -9.378906 3.6875 -9.609375 C 4.300781 -9.847656 4.988281 -9.96875 5.75 -9.96875 C 6.757812 -9.96875 7.632812 -9.757812 8.375 -9.34375 C 9.125 -8.925781 9.707031 -8.335938 10.125 -7.578125 C 10.539062 -6.828125 10.75 -5.929688 10.75 -4.890625 C 10.75 -4.109375 10.628906 -3.40625 10.390625 -2.78125 C 10.160156 -2.15625 9.820312 -1.617188 9.375 -1.171875 C 8.9375 -0.722656 8.410156 -0.378906 7.796875 -0.140625 C 7.191406 0.0859375 6.507812 0.203125 5.75 0.203125 Z M 5.75 -1.703125 C 6.238281 -1.703125 6.671875 -1.820312 7.046875 -2.0625 C 7.421875 -2.300781 7.710938 -2.65625 7.921875 -3.125 C 8.128906 -3.59375 8.234375 -4.179688 8.234375 -4.890625 C 8.234375 -5.953125 8.003906 -6.742188 7.546875 -7.265625 C 7.097656 -7.796875 6.5 -8.0625 5.75 -8.0625 C 5.257812 -8.0625 4.828125 -7.945312 4.453125 -7.71875 C 4.078125 -7.488281 3.785156 -7.132812 3.578125 -6.65625 C 3.378906 -6.1875 3.28125 -5.597656 3.28125 -4.890625 C 3.28125 -3.835938 3.503906 -3.039062 3.953125 -2.5 C 4.398438 -1.96875 5 -1.703125 5.75 -1.703125 Z M 5.75 -1.703125 "/></g></g></g><g fill="#000000" fill-opacity="1"><g transform="translate(309.481357, 296.930564)"><g><path d="M 5.75 0.203125 C 4.738281 0.203125 3.859375 0 3.109375 -0.40625 C 2.367188 -0.820312 1.789062 -1.410156 1.375 -2.171875 C 0.96875 -2.941406 0.765625 -3.847656 0.765625 -4.890625 C 0.765625 -5.679688 0.878906 -6.382812 1.109375 -7 C 1.335938 -7.613281 1.671875 -8.144531 2.109375 -8.59375 C 2.554688 -9.039062 3.082031 -9.378906 3.6875 -9.609375 C 4.300781 -9.847656 4.988281 -9.96875 5.75 -9.96875 C 6.757812 -9.96875 7.632812 -9.757812 8.375 -9.34375 C 9.125 -8.925781 9.707031 -8.335938 10.125 -7.578125 C 10.539062 -6.828125 10.75 -5.929688 10.75 -4.890625 C 10.75 -4.109375 10.628906 -3.40625 10.390625 -2.78125 C 10.160156 -2.15625 9.820312 -1.617188 9.375 -1.171875 C 8.9375 -0.722656 8.410156 -0.378906 7.796875 -0.140625 C 7.191406 0.0859375 6.507812 0.203125 5.75 0.203125 Z M 5.75 -1.703125 C 6.238281 -1.703125 6.671875 -1.820312 7.046875 -2.0625 C 7.421875 -2.300781 7.710938 -2.65625 7.921875 -3.125 C 8.128906 -3.59375 8.234375 -4.179688 8.234375 -4.890625 C 8.234375 -5.953125 8.003906 -6.742188 7.546875 -7.265625 C 7.097656 -7.796875 6.5 -8.0625 5.75 -8.0625 C 5.257812 -8.0625 4.828125 -7.945312 4.453125 -7.71875 C 4.078125 -7.488281 3.785156 -7.132812 3.578125 -6.65625 C 3.378906 -6.1875 3.28125 -5.597656 3.28125 -4.890625 C 3.28125 -3.835938 3.503906 -3.039062 3.953125 -2.5 C 4.398438 -1.96875 5 -1.703125 5.75 -1.703125 Z M 5.75 -1.703125 "/></g></g></g><g fill="#000000" fill-opacity="1"><g transform="translate(320.978389, 296.930564)"><g><path d="M 2.53125 0.15625 C 2.132812 0.15625 1.828125 0.046875 1.609375 -0.171875 C 1.398438 -0.390625 1.296875 -0.707031 1.296875 -1.125 L 1.296875 -12.984375 C 1.296875 -13.390625 1.398438 -13.695312 1.609375 -13.90625 C 1.828125 -14.125 2.132812 -14.234375 2.53125 -14.234375 C 2.9375 -14.234375 3.25 -14.125 3.46875 -13.90625 C 3.6875 -13.695312 3.796875 -13.390625 3.796875 -12.984375 L 3.796875 -5.609375 L 3.828125 -5.609375 L 7.125 -9.078125 C 7.394531 -9.347656 7.628906 -9.554688 7.828125 -9.703125 C 8.023438 -9.847656 8.296875 -9.921875 8.640625 -9.921875 C 8.992188 -9.921875 9.257812 -9.832031 9.4375 -9.65625 C 9.613281 -9.476562 9.703125 -9.257812 9.703125 -9 C 9.703125 -8.75 9.582031 -8.5 9.34375 -8.25 L 5.875 -4.578125 L 5.875 -5.609375 L 9.6875 -1.5 C 9.925781 -1.25 10.035156 -0.992188 10.015625 -0.734375 C 9.992188 -0.472656 9.882812 -0.257812 9.6875 -0.09375 C 9.488281 0.0703125 9.234375 0.15625 8.921875 0.15625 C 8.546875 0.15625 8.25 0.0820312 8.03125 -0.0625 C 7.8125 -0.207031 7.570312 -0.425781 7.3125 -0.71875 L 3.828125 -4.359375 L 3.796875 -4.359375 L 3.796875 -1.125 C 3.796875 -0.269531 3.375 0.15625 2.53125 0.15625 Z M 2.53125 0.15625 "/></g></g></g><g fill="#000000" fill-opacity="1"><g transform="translate(331.677022, 296.930564)"><g/></g></g><g fill="#000000" fill-opacity="1"><g transform="translate(337.086215, 296.930564)"><g><path d="M 2.578125 0.15625 C 2.179688 0.15625 1.875 0.046875 1.65625 -0.171875 C 1.445312 -0.390625 1.34375 -0.707031 1.34375 -1.125 L 1.34375 -8.671875 C 1.34375 -9.078125 1.445312 -9.382812 1.65625 -9.59375 C 1.875 -9.8125 2.175781 -9.921875 2.5625 -9.921875 C 2.945312 -9.921875 3.242188 -9.8125 3.453125 -9.59375 C 3.671875 -9.382812 3.78125 -9.078125 3.78125 -8.671875 L 3.78125 -7.203125 L 3.546875 -7.8125 C 3.816406 -8.476562 4.226562 -9.003906 4.78125 -9.390625 C 5.34375 -9.773438 6.015625 -9.96875 6.796875 -9.96875 C 7.578125 -9.96875 8.21875 -9.78125 8.71875 -9.40625 C 9.226562 -9.03125 9.582031 -8.457031 9.78125 -7.6875 L 9.5 -7.6875 C 9.769531 -8.394531 10.207031 -8.953125 10.8125 -9.359375 C 11.425781 -9.765625 12.132812 -9.96875 12.9375 -9.96875 C 13.6875 -9.96875 14.300781 -9.816406 14.78125 -9.515625 C 15.269531 -9.222656 15.632812 -8.78125 15.875 -8.1875 C 16.113281 -7.601562 16.234375 -6.859375 16.234375 -5.953125 L 16.234375 -1.125 C 16.234375 -0.707031 16.125 -0.390625 15.90625 -0.171875 C 15.6875 0.046875 15.375 0.15625 14.96875 0.15625 C 14.570312 0.15625 14.265625 0.046875 14.046875 -0.171875 C 13.835938 -0.390625 13.734375 -0.707031 13.734375 -1.125 L 13.734375 -5.84375 C 13.734375 -6.59375 13.609375 -7.140625 13.359375 -7.484375 C 13.117188 -7.828125 12.707031 -8 12.125 -8 C 11.46875 -8 10.953125 -7.769531 10.578125 -7.3125 C 10.210938 -6.851562 10.03125 -6.21875 10.03125 -5.40625 L 10.03125 -1.125 C 10.03125 -0.707031 9.921875 -0.390625 9.703125 -0.171875 C 9.492188 0.046875 9.1875 0.15625 8.78125 0.15625 C 8.382812 0.15625 8.078125 0.046875 7.859375 -0.171875 C 7.640625 -0.390625 7.53125 -0.707031 7.53125 -1.125 L 7.53125 -5.84375 C 7.53125 -6.59375 7.40625 -7.140625 7.15625 -7.484375 C 6.914062 -7.828125 6.507812 -8 5.9375 -8 C 5.28125 -8 4.765625 -7.769531 4.390625 -7.3125 C 4.015625 -6.851562 3.828125 -6.21875 3.828125 -5.40625 L 3.828125 -1.125 C 3.828125 -0.269531 3.410156 0.15625 2.578125 0.15625 Z M 2.578125 0.15625 "/></g></g></g><g fill="#000000" fill-opacity="1"><g transform="translate(354.491427, 296.930564)"><g><path d="M 3.78125 3.75 C 3.476562 3.75 3.234375 3.671875 3.046875 3.515625 C 2.867188 3.367188 2.757812 3.164062 2.71875 2.90625 C 2.6875 2.65625 2.734375 2.390625 2.859375 2.109375 L 4.21875 -0.90625 L 4.21875 0.140625 L 0.578125 -8.265625 C 0.460938 -8.554688 0.421875 -8.828125 0.453125 -9.078125 C 0.492188 -9.335938 0.617188 -9.539062 0.828125 -9.6875 C 1.035156 -9.84375 1.316406 -9.921875 1.671875 -9.921875 C 1.984375 -9.921875 2.234375 -9.847656 2.421875 -9.703125 C 2.609375 -9.566406 2.773438 -9.304688 2.921875 -8.921875 L 5.609375 -2.203125 L 5.015625 -2.203125 L 7.765625 -8.953125 C 7.910156 -9.316406 8.082031 -9.566406 8.28125 -9.703125 C 8.488281 -9.847656 8.753906 -9.921875 9.078125 -9.921875 C 9.378906 -9.921875 9.613281 -9.84375 9.78125 -9.6875 C 9.957031 -9.539062 10.066406 -9.34375 10.109375 -9.09375 C 10.148438 -8.84375 10.101562 -8.570312 9.96875 -8.28125 L 5.109375 2.796875 C 4.941406 3.171875 4.753906 3.421875 4.546875 3.546875 C 4.347656 3.679688 4.09375 3.75 3.78125 3.75 Z M 3.78125 3.75 "/></g></g></g><g fill="#000000" fill-opacity="1"><g transform="translate(364.990451, 296.930564)"><g/></g></g><g fill="#000000" fill-opacity="1"><g transform="translate(370.399644, 296.930564)"><g><path d="M 6.390625 0.203125 C 5.804688 0.203125 5.21875 0.15625 4.625 0.0625 C 4.039062 -0.0195312 3.488281 -0.148438 2.96875 -0.328125 C 2.457031 -0.503906 1.992188 -0.726562 1.578125 -1 C 1.335938 -1.15625 1.171875 -1.347656 1.078125 -1.578125 C 0.984375 -1.804688 0.953125 -2.03125 0.984375 -2.25 C 1.015625 -2.46875 1.097656 -2.660156 1.234375 -2.828125 C 1.378906 -2.992188 1.554688 -3.09375 1.765625 -3.125 C 1.984375 -3.164062 2.21875 -3.109375 2.46875 -2.953125 C 3.0625 -2.609375 3.679688 -2.351562 4.328125 -2.1875 C 4.984375 -2.03125 5.671875 -1.953125 6.390625 -1.953125 C 7.441406 -1.953125 8.207031 -2.128906 8.6875 -2.484375 C 9.164062 -2.835938 9.40625 -3.296875 9.40625 -3.859375 C 9.40625 -4.316406 9.234375 -4.679688 8.890625 -4.953125 C 8.554688 -5.222656 7.976562 -5.441406 7.15625 -5.609375 L 4.953125 -6.078125 C 3.691406 -6.335938 2.75 -6.78125 2.125 -7.40625 C 1.507812 -8.039062 1.203125 -8.878906 1.203125 -9.921875 C 1.203125 -10.578125 1.332031 -11.171875 1.59375 -11.703125 C 1.863281 -12.234375 2.238281 -12.691406 2.71875 -13.078125 C 3.207031 -13.460938 3.785156 -13.757812 4.453125 -13.96875 C 5.128906 -14.175781 5.875 -14.28125 6.6875 -14.28125 C 7.488281 -14.28125 8.25 -14.175781 8.96875 -13.96875 C 9.6875 -13.769531 10.332031 -13.476562 10.90625 -13.09375 C 11.113281 -12.945312 11.253906 -12.765625 11.328125 -12.546875 C 11.398438 -12.335938 11.414062 -12.128906 11.375 -11.921875 C 11.34375 -11.722656 11.253906 -11.550781 11.109375 -11.40625 C 10.960938 -11.257812 10.773438 -11.171875 10.546875 -11.140625 C 10.328125 -11.117188 10.078125 -11.1875 9.796875 -11.34375 C 9.304688 -11.625 8.804688 -11.820312 8.296875 -11.9375 C 7.796875 -12.0625 7.253906 -12.125 6.671875 -12.125 C 6.054688 -12.125 5.53125 -12.035156 5.09375 -11.859375 C 4.65625 -11.691406 4.316406 -11.445312 4.078125 -11.125 C 3.847656 -10.8125 3.734375 -10.445312 3.734375 -10.03125 C 3.734375 -9.550781 3.890625 -9.164062 4.203125 -8.875 C 4.523438 -8.59375 5.070312 -8.367188 5.84375 -8.203125 L 8.03125 -7.75 C 9.34375 -7.46875 10.320312 -7.023438 10.96875 -6.421875 C 11.613281 -5.828125 11.9375 -5.03125 11.9375 -4.03125 C 11.9375 -3.394531 11.804688 -2.816406 11.546875 -2.296875 C 11.285156 -1.773438 10.910156 -1.328125 10.421875 -0.953125 C 9.941406 -0.585938 9.363281 -0.300781 8.6875 -0.09375 C 8.007812 0.101562 7.242188 0.203125 6.390625 0.203125 Z M 6.390625 0.203125 "/></g></g></g><g fill="#000000" fill-opacity="1"><g transform="translate(382.994488, 296.930564)"><g><path d="M 2.53125 0.15625 C 2.132812 0.15625 1.828125 0.046875 1.609375 -0.171875 C 1.398438 -0.390625 1.296875 -0.707031 1.296875 -1.125 L 1.296875 -12.984375 C 1.296875 -13.390625 1.398438 -13.695312 1.609375 -13.90625 C 1.828125 -14.125 2.132812 -14.234375 2.53125 -14.234375 C 2.9375 -14.234375 3.25 -14.125 3.46875 -13.90625 C 3.6875 -13.695312 3.796875 -13.390625 3.796875 -12.984375 L 3.796875 -5.609375 L 3.828125 -5.609375 L 7.125 -9.078125 C 7.394531 -9.347656 7.628906 -9.554688 7.828125 -9.703125 C 8.023438 -9.847656 8.296875 -9.921875 8.640625 -9.921875 C 8.992188 -9.921875 9.257812 -9.832031 9.4375 -9.65625 C 9.613281 -9.476562 9.703125 -9.257812 9.703125 -9 C 9.703125 -8.75 9.582031 -8.5 9.34375 -8.25 L 5.875 -4.578125 L 5.875 -5.609375 L 9.6875 -1.5 C 9.925781 -1.25 10.035156 -0.992188 10.015625 -0.734375 C 9.992188 -0.472656 9.882812 -0.257812 9.6875 -0.09375 C 9.488281 0.0703125 9.234375 0.15625 8.921875 0.15625 C 8.546875 0.15625 8.25 0.0820312 8.03125 -0.0625 C 7.8125 -0.207031 7.570312 -0.425781 7.3125 -0.71875 L 3.828125 -4.359375 L 3.796875 -4.359375 L 3.796875 -1.125 C 3.796875 -0.269531 3.375 0.15625 2.53125 0.15625 Z M 2.53125 0.15625 "/></g></g></g><g fill="#000000" fill-opacity="1"><g transform="translate(393.693121, 296.930564)"><g><path d="M 2.53125 0.140625 C 2.132812 0.140625 1.828125 0.0195312 1.609375 -0.21875 C 1.398438 -0.457031 1.296875 -0.789062 1.296875 -1.21875 L 1.296875 -8.546875 C 1.296875 -8.984375 1.398438 -9.316406 1.609375 -9.546875 C 1.828125 -9.785156 2.132812 -9.90625 2.53125 -9.90625 C 2.9375 -9.90625 3.25 -9.785156 3.46875 -9.546875 C 3.6875 -9.316406 3.796875 -8.984375 3.796875 -8.546875 L 3.796875 -1.21875 C 3.796875 -0.789062 3.6875 -0.457031 3.46875 -0.21875 C 3.257812 0.0195312 2.945312 0.140625 2.53125 0.140625 Z M 2.53125 -11.765625 C 2.070312 -11.765625 1.710938 -11.878906 1.453125 -12.109375 C 1.191406 -12.335938 1.0625 -12.660156 1.0625 -13.078125 C 1.0625 -13.503906 1.191406 -13.828125 1.453125 -14.046875 C 1.710938 -14.273438 2.070312 -14.390625 2.53125 -14.390625 C 3.007812 -14.390625 3.375 -14.273438 3.625 -14.046875 C 3.882812 -13.828125 4.015625 -13.503906 4.015625 -13.078125 C 4.015625 -12.660156 3.882812 -12.335938 3.625 -12.109375 C 3.375 -11.878906 3.007812 -11.765625 2.53125 -11.765625 Z M 2.53125 -11.765625 "/></g></g></g><g fill="#000000" fill-opacity="1"><g transform="translate(398.782952, 296.930564)"><g><path d="M 2.53125 3.75 C 2.132812 3.75 1.828125 3.640625 1.609375 3.421875 C 1.398438 3.210938 1.296875 2.90625 1.296875 2.5 L 1.296875 -8.671875 C 1.296875 -9.078125 1.398438 -9.382812 1.609375 -9.59375 C 1.828125 -9.8125 2.128906 -9.921875 2.515625 -9.921875 C 2.910156 -9.921875 3.210938 -9.8125 3.421875 -9.59375 C 3.640625 -9.382812 3.75 -9.078125 3.75 -8.671875 L 3.75 -7.109375 L 3.53125 -7.703125 C 3.726562 -8.378906 4.132812 -8.925781 4.75 -9.34375 C 5.375 -9.757812 6.097656 -9.96875 6.921875 -9.96875 C 7.773438 -9.96875 8.523438 -9.757812 9.171875 -9.34375 C 9.816406 -8.925781 10.316406 -8.34375 10.671875 -7.59375 C 11.035156 -6.84375 11.21875 -5.941406 11.21875 -4.890625 C 11.21875 -3.847656 11.035156 -2.941406 10.671875 -2.171875 C 10.316406 -1.410156 9.820312 -0.820312 9.1875 -0.40625 C 8.550781 0 7.796875 0.203125 6.921875 0.203125 C 6.117188 0.203125 5.410156 0 4.796875 -0.40625 C 4.179688 -0.8125 3.765625 -1.34375 3.546875 -2 L 3.796875 -2 L 3.796875 2.5 C 3.796875 2.90625 3.6875 3.210938 3.46875 3.421875 C 3.25 3.640625 2.9375 3.75 2.53125 3.75 Z M 6.234375 -1.703125 C 6.722656 -1.703125 7.15625 -1.820312 7.53125 -2.0625 C 7.90625 -2.300781 8.191406 -2.65625 8.390625 -3.125 C 8.597656 -3.59375 8.703125 -4.179688 8.703125 -4.890625 C 8.703125 -5.953125 8.472656 -6.742188 8.015625 -7.265625 C 7.566406 -7.796875 6.972656 -8.0625 6.234375 -8.0625 C 5.734375 -8.0625 5.296875 -7.945312 4.921875 -7.71875 C 4.554688 -7.488281 4.269531 -7.132812 4.0625 -6.65625 C 3.851562 -6.1875 3.75 -5.597656 3.75 -4.890625 C 3.75 -3.835938 3.972656 -3.039062 4.421875 -2.5 C 4.878906 -1.96875 5.484375 -1.703125 6.234375 -1.703125 Z M 6.234375 -1.703125 "/></g></g></g></svg>