<svg xmlns="http://www.w3.org/2000/svg" xmlns:xlink="http://www.w3.org/1999/xlink" width="940" zoomAndPan="magnify" viewBox="0 0 660 599.04" height="788" preserveAspectRatio="xMidYMid meet" version="1.0"><defs><clipPath id="0c7467baaa"><path d="M 165.851562 130.40625 L 517.371094 130.40625 L 517.371094 481.925781 L 165.851562 481.925781 Z M 165.851562 130.40625 " clip-rule="nonzero"/></clipPath><clipPath id="a9fba556d7"><path d="M 341.609375 130.40625 C 244.542969 130.40625 165.851562 209.097656 165.851562 306.164062 C 165.851562 403.234375 244.542969 481.925781 341.609375 481.925781 C 438.679688 481.925781 517.371094 403.234375 517.371094 306.164062 C 517.371094 209.097656 438.679688 130.40625 341.609375 130.40625 Z M 341.609375 130.40625 " clip-rule="nonzero"/></clipPath><clipPath id="60696ff083"><path d="M 0.851562 0.40625 L 352.371094 0.40625 L 352.371094 351.925781 L 0.851562 351.925781 Z M 0.851562 0.40625 " clip-rule="nonzero"/></clipPath><clipPath id="e2c8fbaac7"><path d="M 176.609375 0.40625 C 79.542969 0.40625 0.851562 79.097656 0.851562 176.164062 C 0.851562 273.234375 79.542969 351.925781 176.609375 351.925781 C 273.679688 351.925781 352.371094 273.234375 352.371094 176.164062 C 352.371094 79.097656 273.679688 0.40625 176.609375 0.40625 Z M 176.609375 0.40625 " clip-rule="nonzero"/></clipPath><clipPath id="0ba6936ce3"><rect x="0" width="353" y="0" height="352"/></clipPath><clipPath id="52abf5ede1"><path d="M 291 188.15625 L 383 188.15625 L 383 280 L 291 280 Z M 291 188.15625 " clip-rule="nonzero"/></clipPath><clipPath id="33af5e1bad"><path d="M 212.691406 270 L 462.039062 270 L 462.039062 424.027344 L 212.691406 424.027344 Z M 212.691406 270 " clip-rule="nonzero"/></clipPath></defs><g clip-path="url(#0c7467baaa)"><g clip-path="url(#a9fba556d7)"><g transform="matrix(1, 0, 0, 1, 165, 130)"><g clip-path="url(#0ba6936ce3)"><g clip-path="url(#60696ff083)"><g clip-path="url(#e2c8fbaac7)"><path fill="#ff914d" d="M 0.851562 0.40625 L 352.371094 0.40625 L 352.371094 351.925781 L 0.851562 351.925781 Z M 0.851562 0.40625 " fill-opacity="1" fill-rule="nonzero"/></g></g></g></g></g></g><path fill="#ffffff" d="M 337.464844 194.609375 C 329.742188 194.613281 322.195312 196.90625 315.777344 201.199219 C 309.359375 205.492188 304.359375 211.59375 301.40625 218.726562 C 298.457031 225.863281 297.6875 233.714844 299.199219 241.285156 C 300.710938 248.859375 304.429688 255.8125 309.894531 261.269531 C 315.355469 266.726562 322.316406 270.441406 329.890625 271.941406 C 337.464844 273.445312 345.3125 272.667969 352.445312 269.707031 C 359.578125 266.75 365.671875 261.742188 369.957031 255.320312 C 374.242188 248.898438 376.527344 241.347656 376.523438 233.625 C 376.507812 223.277344 372.382812 213.355469 365.0625 206.039062 C 357.738281 198.726562 347.8125 194.613281 337.464844 194.609375 Z M 342.839844 253.714844 L 339.613281 253.714844 L 339.613281 261.117188 C 339.613281 261.6875 339.386719 262.234375 338.984375 262.636719 C 338.582031 263.039062 338.035156 263.265625 337.464844 263.265625 C 336.890625 263.265625 336.34375 263.039062 335.941406 262.636719 C 335.539062 262.234375 335.3125 261.6875 335.3125 261.117188 L 335.3125 253.714844 L 326.707031 253.714844 C 326.136719 253.714844 325.589844 253.488281 325.1875 253.085938 C 324.785156 252.683594 324.558594 252.136719 324.558594 251.566406 C 324.558594 250.996094 324.785156 250.449219 325.1875 250.042969 C 325.589844 249.640625 326.136719 249.414062 326.707031 249.414062 L 335.3125 249.414062 L 335.3125 235.777344 L 332.085938 235.777344 C 330.628906 235.777344 329.183594 235.488281 327.835938 234.933594 C 326.492188 234.375 325.269531 233.558594 324.238281 232.527344 C 323.207031 231.496094 322.390625 230.273438 321.832031 228.925781 C 321.273438 227.578125 320.988281 226.136719 320.988281 224.679688 C 320.988281 223.21875 321.273438 221.777344 321.832031 220.429688 C 322.390625 219.085938 323.207031 217.859375 324.238281 216.832031 C 325.269531 215.800781 326.492188 214.980469 327.835938 214.425781 C 329.183594 213.867188 330.628906 213.578125 332.085938 213.578125 L 335.3125 213.578125 L 335.3125 206.179688 C 335.3125 205.609375 335.539062 205.0625 335.941406 204.660156 C 336.34375 204.253906 336.890625 204.027344 337.464844 204.027344 C 338.035156 204.027344 338.582031 204.253906 338.984375 204.660156 C 339.386719 205.0625 339.613281 205.609375 339.613281 206.179688 L 339.613281 213.578125 L 348.21875 213.578125 C 348.789062 213.578125 349.335938 213.804688 349.738281 214.210938 C 350.140625 214.613281 350.367188 215.160156 350.367188 215.730469 C 350.367188 216.300781 350.140625 216.847656 349.738281 217.25 C 349.335938 217.65625 348.789062 217.882812 348.21875 217.882812 L 339.613281 217.882812 L 339.613281 231.476562 L 342.839844 231.476562 C 345.789062 231.476562 348.617188 232.648438 350.703125 234.730469 C 352.789062 236.816406 353.960938 239.648438 353.960938 242.597656 C 353.960938 245.546875 352.789062 248.375 350.703125 250.460938 C 348.617188 252.542969 345.789062 253.714844 342.839844 253.714844 Z M 342.839844 253.714844 " fill-opacity="1" fill-rule="nonzero"/><path fill="#ffffff" d="M 250.933594 331.382812 L 220.039062 362.300781 L 274.605469 416.828125 L 305.5 385.910156 Z M 250.933594 331.382812 " fill-opacity="1" fill-rule="nonzero"/><path fill="#333a47" d="M 342.839844 229.324219 L 341.765625 229.324219 L 341.765625 220.03125 L 348.21875 220.03125 C 349.359375 220.03125 350.453125 219.578125 351.261719 218.773438 C 352.066406 217.964844 352.519531 216.871094 352.519531 215.730469 C 352.519531 214.589844 352.066406 213.496094 351.261719 212.6875 C 350.453125 211.882812 349.359375 211.429688 348.21875 211.429688 L 341.765625 211.429688 L 341.765625 206.179688 C 341.765625 205.039062 341.3125 203.945312 340.503906 203.136719 C 339.699219 202.332031 338.605469 201.878906 337.464844 201.878906 C 336.320312 201.878906 335.226562 202.332031 334.421875 203.136719 C 333.613281 203.945312 333.160156 205.039062 333.160156 206.179688 L 333.160156 211.429688 L 332.085938 211.429688 C 328.570312 211.429688 325.203125 212.824219 322.71875 215.308594 C 320.230469 217.792969 318.835938 221.164062 318.835938 224.679688 C 318.835938 228.191406 320.230469 231.5625 322.71875 234.046875 C 325.203125 236.53125 328.570312 237.929688 332.085938 237.929688 L 333.160156 237.929688 L 333.160156 247.261719 L 326.707031 247.261719 C 325.566406 247.261719 324.472656 247.714844 323.664062 248.523438 C 322.859375 249.332031 322.40625 250.425781 322.40625 251.566406 C 322.40625 252.707031 322.859375 253.800781 323.664062 254.605469 C 324.472656 255.414062 325.566406 255.867188 326.707031 255.867188 L 333.160156 255.867188 L 333.160156 261.117188 C 333.160156 262.257812 333.613281 263.351562 334.421875 264.15625 C 335.226562 264.964844 336.320312 265.417969 337.464844 265.417969 C 338.605469 265.417969 339.699219 264.964844 340.503906 264.15625 C 341.3125 263.351562 341.765625 262.257812 341.765625 261.117188 L 341.765625 255.867188 L 342.839844 255.867188 C 346.359375 255.867188 349.734375 254.46875 352.222656 251.980469 C 354.714844 249.492188 356.113281 246.117188 356.113281 242.597656 C 356.113281 239.074219 354.714844 235.699219 352.222656 233.210938 C 349.734375 230.722656 346.359375 229.324219 342.839844 229.324219 Z M 333.160156 229.324219 L 332.085938 229.324219 C 330.851562 229.324219 329.671875 228.835938 328.800781 227.964844 C 327.929688 227.09375 327.441406 225.910156 327.441406 224.679688 C 327.441406 223.445312 327.929688 222.265625 328.800781 221.394531 C 329.671875 220.523438 330.851562 220.03125 332.085938 220.03125 L 333.160156 220.03125 Z M 342.839844 247.261719 L 341.765625 247.261719 L 341.765625 237.929688 L 342.839844 237.929688 C 344.078125 237.929688 345.265625 238.421875 346.140625 239.296875 C 347.015625 240.171875 347.507812 241.359375 347.507812 242.597656 C 347.507812 243.832031 347.015625 245.019531 346.140625 245.894531 C 345.265625 246.773438 344.078125 247.261719 342.839844 247.261719 Z M 342.839844 247.261719 " fill-opacity="1" fill-rule="nonzero"/><g clip-path="url(#52abf5ede1)"><path fill="#333a47" d="M 337.464844 188.15625 C 328.464844 188.160156 319.671875 190.832031 312.191406 195.832031 C 304.714844 200.835938 298.886719 207.945312 295.445312 216.257812 C 292.007812 224.574219 291.109375 233.71875 292.871094 242.542969 C 294.628906 251.367188 298.964844 259.472656 305.332031 265.832031 C 311.695312 272.191406 319.804688 276.519531 328.628906 278.269531 C 337.457031 280.023438 346.601562 279.117188 354.914062 275.667969 C 363.226562 272.222656 370.328125 266.386719 375.324219 258.90625 C 380.316406 251.421875 382.980469 242.625 382.976562 233.625 C 382.957031 221.566406 378.152344 210.003906 369.621094 201.480469 C 361.089844 192.957031 349.523438 188.164062 337.464844 188.15625 Z M 337.464844 270.535156 C 330.167969 270.53125 323.039062 268.367188 316.976562 264.3125 C 310.914062 260.257812 306.1875 254.496094 303.398438 247.753906 C 300.609375 241.015625 299.882812 233.601562 301.304688 226.445312 C 302.730469 219.292969 306.242188 212.722656 311.398438 207.5625 C 316.558594 202.40625 323.128906 198.894531 330.28125 197.46875 C 337.4375 196.042969 344.851562 196.773438 351.589844 199.5625 C 358.332031 202.351562 364.09375 207.078125 368.148438 213.140625 C 372.203125 219.203125 374.371094 226.332031 374.375 233.625 C 374.359375 243.410156 370.46875 252.792969 363.550781 259.710938 C 356.628906 266.632812 347.25 270.523438 337.464844 270.535156 Z M 337.464844 270.535156 " fill-opacity="1" fill-rule="nonzero"/></g><g clip-path="url(#33af5e1bad)"><path fill="#333a47" d="M 456.152344 276.601562 C 454.234375 274.679688 451.953125 273.152344 449.445312 272.113281 C 446.933594 271.074219 444.242188 270.535156 441.527344 270.535156 C 438.808594 270.535156 436.117188 271.074219 433.609375 272.113281 C 431.097656 273.152344 428.820312 274.679688 426.898438 276.601562 L 391.796875 311.707031 C 390.484375 308.003906 388.058594 304.800781 384.855469 302.527344 C 381.652344 300.257812 377.828125 299.03125 373.898438 299.015625 L 311.566406 299.015625 C 305.617188 298.992188 299.726562 300.152344 294.230469 302.425781 C 288.738281 304.699219 283.75 308.046875 279.558594 312.265625 L 260.242188 331.539062 L 254.003906 325.300781 C 253.191406 324.496094 252.09375 324.042969 250.949219 324.042969 C 249.808594 324.042969 248.710938 324.496094 247.898438 325.300781 L 213.953125 359.242188 C 213.554688 359.640625 213.238281 360.113281 213.023438 360.632812 C 212.808594 361.15625 212.695312 361.710938 212.695312 362.277344 C 212.695312 362.839844 212.808594 363.398438 213.023438 363.917969 C 213.238281 364.4375 213.554688 364.910156 213.953125 365.308594 L 271.558594 422.910156 C 271.957031 423.3125 272.433594 423.628906 272.957031 423.84375 C 273.484375 424.058594 274.046875 424.164062 274.613281 424.160156 C 275.753906 424.164062 276.851562 423.714844 277.667969 422.910156 L 311.609375 388.96875 C 312.007812 388.570312 312.324219 388.097656 312.539062 387.578125 C 312.753906 387.058594 312.867188 386.5 312.867188 385.9375 C 312.867188 385.371094 312.753906 384.816406 312.539062 384.292969 C 312.324219 383.773438 312.007812 383.300781 311.609375 382.902344 L 305.5 376.835938 C 309.480469 373.46875 314.523438 371.613281 319.738281 371.589844 L 371.707031 371.589844 C 377.652344 371.597656 383.539062 370.433594 389.03125 368.160156 C 394.523438 365.886719 399.515625 362.546875 403.710938 358.339844 L 456.152344 305.855469 C 458.074219 303.9375 459.601562 301.65625 460.644531 299.144531 C 461.683594 296.636719 462.21875 293.945312 462.21875 291.230469 C 462.21875 288.511719 461.683594 285.820312 460.644531 283.3125 C 459.601562 280.800781 458.074219 278.523438 456.152344 276.601562 Z M 274.613281 413.792969 L 223.074219 362.296875 L 250.949219 334.421875 L 302.445312 385.914062 Z M 450.085938 299.789062 L 397.648438 352.230469 C 394.242188 355.644531 390.199219 358.347656 385.75 360.195312 C 381.296875 362.039062 376.523438 362.988281 371.707031 362.984375 L 319.738281 362.984375 C 312.230469 362.96875 304.972656 365.710938 299.347656 370.6875 L 266.351562 337.648438 L 285.625 318.332031 C 292.535156 311.5 301.847656 307.65625 311.566406 307.621094 L 373.898438 307.621094 C 376.679688 307.621094 379.34375 308.722656 381.308594 310.6875 C 383.273438 312.652344 384.375 315.316406 384.375 318.09375 C 384.375 320.871094 383.273438 323.539062 381.308594 325.5 C 379.34375 327.464844 376.679688 328.570312 373.898438 328.570312 L 325.246094 328.570312 C 324.105469 328.570312 323.011719 329.023438 322.203125 329.828125 C 321.398438 330.636719 320.945312 331.730469 320.945312 332.871094 C 320.945312 334.011719 321.398438 335.105469 322.203125 335.914062 C 323.011719 336.71875 324.105469 337.171875 325.246094 337.171875 L 373.898438 337.171875 C 377.976562 337.15625 381.941406 335.828125 385.210938 333.390625 C 388.476562 330.949219 390.878906 327.527344 392.054688 323.621094 L 432.964844 282.710938 C 435.265625 280.496094 438.332031 279.257812 441.527344 279.257812 C 444.71875 279.257812 447.789062 280.496094 450.085938 282.710938 C 452.347656 284.980469 453.613281 288.050781 453.613281 291.25 C 453.613281 294.453125 452.347656 297.523438 450.085938 299.789062 Z M 450.085938 299.789062 " fill-opacity="1" fill-rule="nonzero"/></g></svg>