<svg xmlns="http://www.w3.org/2000/svg" xmlns:xlink="http://www.w3.org/1999/xlink" width="940" zoomAndPan="magnify" viewBox="0 0 660 599.04" height="788" preserveAspectRatio="xMidYMid meet" version="1.0"><defs><clipPath id="a3217756c9"><path d="M 165.851562 130.40625 L 517.371094 130.40625 L 517.371094 481.925781 L 165.851562 481.925781 Z M 165.851562 130.40625 " clip-rule="nonzero"/></clipPath><clipPath id="af572baca7"><path d="M 341.609375 130.40625 C 244.542969 130.40625 165.851562 209.097656 165.851562 306.164062 C 165.851562 403.234375 244.542969 481.925781 341.609375 481.925781 C 438.679688 481.925781 517.371094 403.234375 517.371094 306.164062 C 517.371094 209.097656 438.679688 130.40625 341.609375 130.40625 Z M 341.609375 130.40625 " clip-rule="nonzero"/></clipPath><clipPath id="1247e0a0fd"><path d="M 0.851562 0.40625 L 352.371094 0.40625 L 352.371094 351.925781 L 0.851562 351.925781 Z M 0.851562 0.40625 " clip-rule="nonzero"/></clipPath><clipPath id="7619c5cedc"><path d="M 176.609375 0.40625 C 79.542969 0.40625 0.851562 79.097656 0.851562 176.164062 C 0.851562 273.234375 79.542969 351.925781 176.609375 351.925781 C 273.679688 351.925781 352.371094 273.234375 352.371094 176.164062 C 352.371094 79.097656 273.679688 0.40625 176.609375 0.40625 Z M 176.609375 0.40625 " clip-rule="nonzero"/></clipPath><clipPath id="cf524ef583"><rect x="0" width="353" y="0" height="352"/></clipPath><clipPath id="f1863e0cfe"><path d="M 261 248.046875 L 416 248.046875 L 416 310.945312 L 261 310.945312 Z M 261 248.046875 " clip-rule="nonzero"/></clipPath><clipPath id="11f8056d95"><path d="M 259.027344 248.136719 L 426.011719 247.84375 L 426.121094 311.492188 L 259.140625 311.785156 Z M 259.027344 248.136719 " clip-rule="nonzero"/></clipPath><clipPath id="b67e3eb785"><path d="M 259.082031 248.046875 L 410 248.046875 L 410 274 L 259.082031 274 Z M 259.082031 248.046875 " clip-rule="nonzero"/></clipPath><clipPath id="ba173e3a79"><path d="M 259.027344 248.136719 L 426.011719 247.84375 L 426.121094 311.492188 L 259.140625 311.785156 Z M 259.027344 248.136719 " clip-rule="nonzero"/></clipPath><clipPath id="31525bf331"><path d="M 279 278 L 394 278 L 394 283 L 279 283 Z M 279 278 " clip-rule="nonzero"/></clipPath><clipPath id="c0fc1db65c"><path d="M 259.027344 248.136719 L 426.011719 247.84375 L 426.121094 311.492188 L 259.140625 311.785156 Z M 259.027344 248.136719 " clip-rule="nonzero"/></clipPath><clipPath id="fc937c7a55"><path d="M 357 252 L 363 252 L 363 280 L 357 280 Z M 357 252 " clip-rule="nonzero"/></clipPath><clipPath id="6baa858154"><path d="M 259.027344 248.136719 L 426.011719 247.84375 L 426.121094 311.492188 L 259.140625 311.785156 Z M 259.027344 248.136719 " clip-rule="nonzero"/></clipPath><clipPath id="7baf6a003c"><path d="M 310 252 L 316 252 L 316 280 L 310 280 Z M 310 252 " clip-rule="nonzero"/></clipPath><clipPath id="22bfb36506"><path d="M 259.027344 248.136719 L 426.011719 247.84375 L 426.121094 311.492188 L 259.140625 311.785156 Z M 259.027344 248.136719 " clip-rule="nonzero"/></clipPath><clipPath id="ba3d08f02b"><path d="M 262 248.046875 L 415 248.046875 L 415 310.945312 L 262 310.945312 Z M 262 248.046875 " clip-rule="nonzero"/></clipPath><clipPath id="d4587f7377"><path d="M 259.027344 248.136719 L 426.011719 247.84375 L 426.121094 311.492188 L 259.140625 311.785156 Z M 259.027344 248.136719 " clip-rule="nonzero"/></clipPath><clipPath id="15025723aa"><path d="M 280 278 L 393 278 L 393 283 L 280 283 Z M 280 278 " clip-rule="nonzero"/></clipPath><clipPath id="58fe5c0796"><path d="M 259.027344 248.136719 L 426.011719 247.84375 L 426.121094 311.492188 L 259.140625 311.785156 Z M 259.027344 248.136719 " clip-rule="nonzero"/></clipPath><clipPath id="5e9650fea9"><path d="M 358 252 L 363 252 L 363 280 L 358 280 Z M 358 252 " clip-rule="nonzero"/></clipPath><clipPath id="97667df067"><path d="M 259.027344 248.136719 L 426.011719 247.84375 L 426.121094 311.492188 L 259.140625 311.785156 Z M 259.027344 248.136719 " clip-rule="nonzero"/></clipPath><clipPath id="4e8c1a8f2e"><path d="M 311 253 L 315 253 L 315 280 L 311 280 Z M 311 253 " clip-rule="nonzero"/></clipPath><clipPath id="0b3090f4f7"><path d="M 259.027344 248.136719 L 426.011719 247.84375 L 426.121094 311.492188 L 259.140625 311.785156 Z M 259.027344 248.136719 " clip-rule="nonzero"/></clipPath><clipPath id="0bc79d6cf3"><path d="M 259.082031 248.046875 L 415 248.046875 L 415 274 L 259.082031 274 Z M 259.082031 248.046875 " clip-rule="nonzero"/></clipPath><clipPath id="b418a28f8d"><path d="M 259.027344 248.136719 L 426.011719 247.84375 L 426.121094 311.492188 L 259.140625 311.785156 Z M 259.027344 248.136719 " clip-rule="nonzero"/></clipPath><clipPath id="0ddf0a33a9"><path d="M 385 300 L 423.820312 300 L 423.820312 310.945312 L 385 310.945312 Z M 385 300 " clip-rule="nonzero"/></clipPath><clipPath id="955ea8d8cb"><path d="M 259.027344 248.136719 L 426.011719 247.84375 L 426.121094 311.492188 L 259.140625 311.785156 Z M 259.027344 248.136719 " clip-rule="nonzero"/></clipPath><clipPath id="a8788b14a0"><path d="M 284 168.496094 L 395 168.496094 L 395 213.425781 L 284 213.425781 Z M 284 168.496094 " clip-rule="nonzero"/></clipPath><clipPath id="2b77d3ec90"><path d="M 282.515625 168.5625 L 402.324219 168.351562 L 402.402344 214.027344 L 282.59375 214.238281 Z M 282.515625 168.5625 " clip-rule="nonzero"/></clipPath><clipPath id="a09f113d18"><path d="M 282.554688 168.496094 L 391 168.496094 L 391 187 L 282.554688 187 Z M 282.554688 168.496094 " clip-rule="nonzero"/></clipPath><clipPath id="1e72494ad4"><path d="M 282.515625 168.5625 L 402.324219 168.351562 L 402.402344 214.027344 L 282.59375 214.238281 Z M 282.515625 168.5625 " clip-rule="nonzero"/></clipPath><clipPath id="4dd28dc5ff"><path d="M 297 190 L 379 190 L 379 193 L 297 193 Z M 297 190 " clip-rule="nonzero"/></clipPath><clipPath id="3d699bab0f"><path d="M 282.515625 168.5625 L 402.324219 168.351562 L 402.402344 214.027344 L 282.59375 214.238281 Z M 282.515625 168.5625 " clip-rule="nonzero"/></clipPath><clipPath id="6227519d9d"><path d="M 353 171 L 357 171 L 357 192 L 353 192 Z M 353 171 " clip-rule="nonzero"/></clipPath><clipPath id="b7ac383db3"><path d="M 282.515625 168.5625 L 402.324219 168.351562 L 402.402344 214.027344 L 282.59375 214.238281 Z M 282.515625 168.5625 " clip-rule="nonzero"/></clipPath><clipPath id="d9a99fbd0c"><path d="M 319 171 L 323 171 L 323 192 L 319 192 Z M 319 171 " clip-rule="nonzero"/></clipPath><clipPath id="c3b21c870a"><path d="M 282.515625 168.5625 L 402.324219 168.351562 L 402.402344 214.027344 L 282.59375 214.238281 Z M 282.515625 168.5625 " clip-rule="nonzero"/></clipPath><clipPath id="5b46e41b0b"><path d="M 285 168.496094 L 394 168.496094 L 394 213.425781 L 285 213.425781 Z M 285 168.496094 " clip-rule="nonzero"/></clipPath><clipPath id="19012b77ff"><path d="M 282.515625 168.5625 L 402.324219 168.351562 L 402.402344 214.027344 L 282.59375 214.238281 Z M 282.515625 168.5625 " clip-rule="nonzero"/></clipPath><clipPath id="01f49b3d67"><path d="M 297 190 L 379 190 L 379 194 L 297 194 Z M 297 190 " clip-rule="nonzero"/></clipPath><clipPath id="78ab2b8758"><path d="M 282.515625 168.5625 L 402.324219 168.351562 L 402.402344 214.027344 L 282.59375 214.238281 Z M 282.515625 168.5625 " clip-rule="nonzero"/></clipPath><clipPath id="845422d3ec"><path d="M 353 171 L 357 171 L 357 191 L 353 191 Z M 353 171 " clip-rule="nonzero"/></clipPath><clipPath id="8c460268ec"><path d="M 282.515625 168.5625 L 402.324219 168.351562 L 402.402344 214.027344 L 282.59375 214.238281 Z M 282.515625 168.5625 " clip-rule="nonzero"/></clipPath><clipPath id="6fe56a9e62"><path d="M 319 172 L 323 172 L 323 191 L 319 191 Z M 319 172 " clip-rule="nonzero"/></clipPath><clipPath id="22932a7811"><path d="M 282.515625 168.5625 L 402.324219 168.351562 L 402.402344 214.027344 L 282.59375 214.238281 Z M 282.515625 168.5625 " clip-rule="nonzero"/></clipPath><clipPath id="288ab0be9f"><path d="M 282.554688 168.496094 L 394 168.496094 L 394 187 L 282.554688 187 Z M 282.554688 168.496094 " clip-rule="nonzero"/></clipPath><clipPath id="35059b93b8"><path d="M 282.515625 168.5625 L 402.324219 168.351562 L 402.402344 214.027344 L 282.59375 214.238281 Z M 282.515625 168.5625 " clip-rule="nonzero"/></clipPath><clipPath id="d34a040b6f"><path d="M 373 205 L 400.867188 205 L 400.867188 213.425781 L 373 213.425781 Z M 373 205 " clip-rule="nonzero"/></clipPath><clipPath id="f308d2798c"><path d="M 282.515625 168.5625 L 402.324219 168.351562 L 402.402344 214.027344 L 282.59375 214.238281 Z M 282.515625 168.5625 " clip-rule="nonzero"/></clipPath><clipPath id="9b5337a3d6"><path d="M 245 345.550781 L 452 345.550781 L 452 430.167969 L 245 430.167969 Z M 245 345.550781 " clip-rule="nonzero"/></clipPath><clipPath id="85ca293b1b"><path d="M 241.421875 345.671875 L 466.0625 345.28125 L 466.210938 431.394531 L 241.570312 431.785156 Z M 241.421875 345.671875 " clip-rule="nonzero"/></clipPath><clipPath id="6d8522360c"><path d="M 241.496094 345.550781 L 444 345.550781 L 444 380 L 241.496094 380 Z M 241.496094 345.550781 " clip-rule="nonzero"/></clipPath><clipPath id="2c25ed0676"><path d="M 241.421875 345.671875 L 466.0625 345.28125 L 466.210938 431.394531 L 241.570312 431.785156 Z M 241.421875 345.671875 " clip-rule="nonzero"/></clipPath><clipPath id="bcf974b5bb"><path d="M 268 386 L 423 386 L 423 392 L 268 392 Z M 268 386 " clip-rule="nonzero"/></clipPath><clipPath id="c2f304e60b"><path d="M 241.421875 345.671875 L 466.0625 345.28125 L 466.210938 431.394531 L 241.570312 431.785156 Z M 241.421875 345.671875 " clip-rule="nonzero"/></clipPath><clipPath id="b8859838ac"><path d="M 374 351 L 381 351 L 381 389 L 374 389 Z M 374 351 " clip-rule="nonzero"/></clipPath><clipPath id="b1e10a4e40"><path d="M 241.421875 345.671875 L 466.0625 345.28125 L 466.210938 431.394531 L 241.570312 431.785156 Z M 241.421875 345.671875 " clip-rule="nonzero"/></clipPath><clipPath id="033c2f28f6"><path d="M 310 351 L 318 351 L 318 389 L 310 389 Z M 310 351 " clip-rule="nonzero"/></clipPath><clipPath id="582c3df650"><path d="M 241.421875 345.671875 L 466.0625 345.28125 L 466.210938 431.394531 L 241.570312 431.785156 Z M 241.421875 345.671875 " clip-rule="nonzero"/></clipPath><clipPath id="efc41b679f"><path d="M 246 345.550781 L 451 345.550781 L 451 430.167969 L 246 430.167969 Z M 246 345.550781 " clip-rule="nonzero"/></clipPath><clipPath id="629e73ad0c"><path d="M 241.421875 345.671875 L 466.0625 345.28125 L 466.210938 431.394531 L 241.570312 431.785156 Z M 241.421875 345.671875 " clip-rule="nonzero"/></clipPath><clipPath id="7aa229d6f9"><path d="M 269 386 L 422 386 L 422 393 L 269 393 Z M 269 386 " clip-rule="nonzero"/></clipPath><clipPath id="f5a3a92e46"><path d="M 241.421875 345.671875 L 466.0625 345.28125 L 466.210938 431.394531 L 241.570312 431.785156 Z M 241.421875 345.671875 " clip-rule="nonzero"/></clipPath><clipPath id="a91fb42633"><path d="M 374 352 L 380 352 L 380 388 L 374 388 Z M 374 352 " clip-rule="nonzero"/></clipPath><clipPath id="c6f42cd157"><path d="M 241.421875 345.671875 L 466.0625 345.28125 L 466.210938 431.394531 L 241.570312 431.785156 Z M 241.421875 345.671875 " clip-rule="nonzero"/></clipPath><clipPath id="e2258329a0"><path d="M 311 352 L 317 352 L 317 388 L 311 388 Z M 311 352 " clip-rule="nonzero"/></clipPath><clipPath id="a5cdd87f78"><path d="M 241.421875 345.671875 L 466.0625 345.28125 L 466.210938 431.394531 L 241.570312 431.785156 Z M 241.421875 345.671875 " clip-rule="nonzero"/></clipPath><clipPath id="c3f1dcfcf3"><path d="M 241.496094 345.550781 L 451 345.550781 L 451 380 L 241.496094 380 Z M 241.496094 345.550781 " clip-rule="nonzero"/></clipPath><clipPath id="370f900657"><path d="M 241.421875 345.671875 L 466.0625 345.28125 L 466.210938 431.394531 L 241.570312 431.785156 Z M 241.421875 345.671875 " clip-rule="nonzero"/></clipPath><clipPath id="9c707bb63d"><path d="M 411 415 L 463.140625 415 L 463.140625 430.167969 L 411 430.167969 Z M 411 415 " clip-rule="nonzero"/></clipPath><clipPath id="2612304125"><path d="M 241.421875 345.671875 L 466.0625 345.28125 L 466.210938 431.394531 L 241.570312 431.785156 Z M 241.421875 345.671875 " clip-rule="nonzero"/></clipPath></defs><g clip-path="url(#a3217756c9)"><g clip-path="url(#af572baca7)"><g transform="matrix(1, 0, 0, 1, 165, 130)"><g clip-path="url(#cf524ef583)"><g clip-path="url(#1247e0a0fd)"><g clip-path="url(#7619c5cedc)"><path fill="#ff914d" d="M 0.851562 0.40625 L 352.371094 0.40625 L 352.371094 351.925781 L 0.851562 351.925781 Z M 0.851562 0.40625 " fill-opacity="1" fill-rule="nonzero"/></g></g></g></g></g></g><g clip-path="url(#f1863e0cfe)"><g clip-path="url(#11f8056d95)"><path stroke-linecap="butt" transform="matrix(0.0470617, -0.0000821382, 0.0000821382, 0.0470617, 259.02776, 248.153207)" fill="none" stroke-linejoin="miter" d="M 2543.167334 1347.736883 L 714.865767 1347.699995 L 74.242734 496.135693 L 74.188767 3.929276 L 2808.797527 3.887914 L 3300.947529 511.727692 L 3191.578332 542.994849 Z M 2543.167334 1347.736883 " stroke="#f44336" stroke-width="1" stroke-opacity="1" stroke-miterlimit="10"/></g></g><g clip-path="url(#b67e3eb785)"><g clip-path="url(#ba173e3a79)"><path fill="#ffffff" d="M 409.148438 273.578125 L 387.472656 253.078125 L 259.035156 253.300781 L 259.027344 248.152344 L 262.519531 248.148438 L 262.519531 248.515625 L 259.394531 248.519531 L 259.402344 252.933594 L 387.617188 252.707031 L 387.671875 252.757812 L 409.402344 273.3125 Z M 409.148438 273.578125 " fill-opacity="1" fill-rule="nonzero"/></g></g><g clip-path="url(#31525bf331)"><g clip-path="url(#c0fc1db65c)"><path stroke-linecap="butt" transform="matrix(0.0470617, -0.0000821382, 0.0000821382, 0.0470617, 259.02776, 248.153207)" fill="none" stroke-linejoin="miter" d="M 2840.016376 664.063293 L 445.303867 664.116867 L 478.509641 708.996308 L 2821.760311 709.018922 Z M 2840.016376 664.063293 " stroke="#f44336" stroke-width="1" stroke-opacity="1" stroke-miterlimit="10"/></g></g><g clip-path="url(#fc937c7a55)"><g clip-path="url(#6baa858154)"><path stroke-linecap="butt" transform="matrix(-0.0470617, 0.0000821382, -0.0000821382, -0.0470617, 461.321841, 284.018005)" fill="none" stroke-linejoin="miter" d="M 2109.529322 105.493784 L 2187.634964 105.464099 L 2187.65604 664.072661 L 2109.467396 664.102201 Z M 2109.529322 105.493784 " stroke="#f44336" stroke-width="1" stroke-opacity="1" stroke-miterlimit="10"/></g></g><g clip-path="url(#7baf6a003c)"><g clip-path="url(#22bfb36506)"><path stroke-linecap="butt" transform="matrix(-0.0470617, 0.0000821382, -0.0000821382, -0.0470617, 366.824886, 284.182945)" fill="none" stroke-linejoin="miter" d="M 1105.509701 105.503134 L 1183.698345 105.473594 L 1183.636419 664.082011 L 1105.530777 664.111696 Z M 1105.509701 105.503134 " stroke="#f44336" stroke-width="1" stroke-opacity="1" stroke-miterlimit="10"/></g></g><g clip-path="url(#ba3d08f02b)"><g clip-path="url(#d4587f7377)"><path fill="#ffffff" d="M 378.824219 311.371094 L 292.78125 311.519531 L 262.5625 271.496094 L 262.519531 248.332031 L 391.214844 248.105469 L 414.417969 271.964844 L 409.273438 273.445312 Z M 378.824219 311.371094 " fill-opacity="1" fill-rule="nonzero"/></g></g><g clip-path="url(#15025723aa)"><g clip-path="url(#58fe5c0796)"><path fill="#545454" d="M 392.738281 278.378906 L 280.039062 278.574219 L 281.609375 282.617188 L 391.886719 282.421875 Z M 392.738281 278.378906 " fill-opacity="1" fill-rule="nonzero"/></g></g><g clip-path="url(#5e9650fea9)"><g clip-path="url(#97667df067)"><path fill="#545454" d="M 362.035156 279.226562 L 358.359375 279.234375 L 358.3125 252.945312 L 361.992188 252.9375 Z M 362.035156 279.226562 " fill-opacity="1" fill-rule="nonzero"/></g></g><g clip-path="url(#4e8c1a8f2e)"><g clip-path="url(#0b3090f4f7)"><path fill="#545454" d="M 314.789062 279.308594 L 311.109375 279.316406 L 311.066406 253.027344 L 314.742188 253.019531 Z M 314.789062 279.308594 " fill-opacity="1" fill-rule="nonzero"/></g></g><g clip-path="url(#0bc79d6cf3)"><g clip-path="url(#b418a28f8d)"><path fill="#545454" d="M 391.214844 248.105469 L 414.417969 271.964844 L 409.273438 273.445312 L 387.542969 252.894531 L 259.21875 253.117188 L 259.210938 248.335938 L 262.519531 248.332031 " fill-opacity="1" fill-rule="nonzero"/></g></g><g clip-path="url(#0ddf0a33a9)"><g clip-path="url(#955ea8d8cb)"><path fill="#545454" d="M 426.15625 311.707031 L 413.613281 311.308594 L 385.601562 302.925781 L 387.8125 300.171875 Z M 426.15625 311.707031 " fill-opacity="1" fill-rule="nonzero"/></g></g><g clip-path="url(#a8788b14a0)"><g clip-path="url(#2b77d3ec90)"><path stroke-linecap="butt" transform="matrix(0.0336767, -0.000058777, 0.000058777, 0.0336767, 282.515537, 168.572867)" fill="none" stroke-linejoin="miter" d="M 2543.107581 1347.788861 L 714.832537 1347.729715 L 74.18386 496.153928 L 74.23109 3.881473 L 2808.756285 3.898429 L 3300.954382 511.761073 L 3191.634836 543.004265 Z M 2543.107581 1347.788861 " stroke="#f44336" stroke-width="1" stroke-opacity="1" stroke-miterlimit="10"/></g></g><g clip-path="url(#a09f113d18)"><g clip-path="url(#1e72494ad4)"><path fill="#ffffff" d="M 389.941406 186.765625 L 374.429688 172.097656 L 282.523438 172.257812 L 282.515625 168.574219 L 285.015625 168.570312 L 285.015625 168.832031 L 282.777344 168.835938 L 282.785156 171.992188 L 374.53125 171.832031 L 374.570312 171.867188 L 390.121094 186.578125 Z M 389.941406 186.765625 " fill-opacity="1" fill-rule="nonzero"/></g></g><g clip-path="url(#4dd28dc5ff)"><g clip-path="url(#3d699bab0f)"><path stroke-linecap="butt" transform="matrix(0.0336767, -0.000058777, 0.000058777, 0.0336767, 282.515537, 168.572867)" fill="none" stroke-linejoin="miter" d="M 2839.966005 664.06671 L 445.299065 664.062956 L 478.510489 709.010052 L 2821.792668 709.040115 Z M 2839.966005 664.06671 " stroke="#f44336" stroke-width="1" stroke-opacity="1" stroke-miterlimit="10"/></g></g><g clip-path="url(#6227519d9d)"><g clip-path="url(#b7ac383db3)"><path stroke-linecap="butt" transform="matrix(-0.0336767, 0.000058777, -0.000058777, -0.0336767, 427.274494, 194.237225)" fill="none" stroke-linejoin="miter" d="M 2109.520403 105.491929 L 2187.583378 105.512182 L 2187.652334 664.132599 L 2109.473366 664.112143 Z M 2109.520403 105.491929 " stroke="#f44336" stroke-width="1" stroke-opacity="1" stroke-miterlimit="10"/></g></g><g clip-path="url(#d9a99fbd0c)"><g clip-path="url(#c3b21c870a)"><path stroke-linecap="butt" transform="matrix(-0.0336767, 0.000058777, -0.000058777, -0.0336767, 359.653723, 194.35525)" fill="none" stroke-linejoin="miter" d="M 1105.49815 105.504343 L 1183.677118 105.524798 L 1183.630081 664.145012 L 1105.567106 664.124759 Z M 1105.49815 105.504343 " stroke="#f44336" stroke-width="1" stroke-opacity="1" stroke-miterlimit="10"/></g></g><g clip-path="url(#5b46e41b0b)"><g clip-path="url(#19012b77ff)"><path fill="#ffffff" d="M 368.238281 213.8125 L 306.667969 213.917969 L 285.042969 185.277344 L 285.015625 168.699219 L 377.105469 168.539062 L 393.710938 185.613281 L 390.03125 186.671875 Z M 368.238281 213.8125 " fill-opacity="1" fill-rule="nonzero"/></g></g><g clip-path="url(#01f49b3d67)"><g clip-path="url(#78ab2b8758)"><path fill="#545454" d="M 378.195312 190.199219 L 297.550781 190.339844 L 298.675781 193.234375 L 377.585938 193.097656 Z M 378.195312 190.199219 " fill-opacity="1" fill-rule="nonzero"/></g></g><g clip-path="url(#845422d3ec)"><g clip-path="url(#8c460268ec)"><path fill="#545454" d="M 356.226562 190.808594 L 353.597656 190.8125 L 353.5625 172 L 356.195312 171.996094 Z M 356.226562 190.808594 " fill-opacity="1" fill-rule="nonzero"/></g></g><g clip-path="url(#6fe56a9e62)"><g clip-path="url(#22932a7811)"><path fill="#545454" d="M 322.417969 190.867188 L 319.785156 190.871094 L 319.753906 172.058594 L 322.382812 172.054688 Z M 322.417969 190.867188 " fill-opacity="1" fill-rule="nonzero"/></g></g><g clip-path="url(#288ab0be9f)"><g clip-path="url(#35059b93b8)"><path fill="#545454" d="M 377.105469 168.539062 L 393.710938 185.613281 L 390.03125 186.671875 L 374.480469 171.964844 L 282.652344 172.125 L 282.648438 168.703125 L 285.015625 168.699219 " fill-opacity="1" fill-rule="nonzero"/></g></g><g clip-path="url(#d34a040b6f)"><g clip-path="url(#f308d2798c)"><path fill="#545454" d="M 402.109375 214.050781 L 393.132812 213.765625 L 373.089844 207.769531 L 374.671875 205.796875 Z M 402.109375 214.050781 " fill-opacity="1" fill-rule="nonzero"/></g></g><g clip-path="url(#9b5337a3d6)"><g clip-path="url(#85ca293b1b)"><path stroke-linecap="butt" transform="matrix(0.0632786, -0.000110442, 0.000110442, 0.0632786, 241.421558, 345.69271)" fill="none" stroke-linejoin="miter" d="M 2543.129309 1347.745643 L 714.904861 1347.764796 L 74.203984 496.117253 L 74.198769 3.936218 L 2808.757364 3.893912 L 3300.977978 511.749459 L 3191.597923 542.979618 Z M 2543.129309 1347.745643 " stroke="#f44336" stroke-width="1" stroke-opacity="1" stroke-miterlimit="10"/></g></g><g clip-path="url(#6d8522360c)"><g clip-path="url(#2c25ed0676)"><path fill="#ffffff" d="M 443.273438 379.878906 L 414.125 352.3125 L 241.433594 352.613281 L 241.421875 345.691406 L 246.117188 345.683594 L 246.121094 346.179688 L 241.917969 346.1875 L 241.925781 352.117188 L 414.324219 351.816406 L 414.394531 351.886719 L 443.613281 379.519531 Z M 443.273438 379.878906 " fill-opacity="1" fill-rule="nonzero"/></g></g><g clip-path="url(#bcf974b5bb)"><g clip-path="url(#c2f304e60b)"><path stroke-linecap="butt" transform="matrix(0.0632786, -0.000110442, 0.000110442, 0.0632786, 241.421558, 345.69271)" fill="none" stroke-linejoin="miter" d="M 2840.013846 664.099461 L 445.346016 664.117679 L 478.54058 709.05403 L 2821.786561 709.007795 Z M 2840.013846 664.099461 " stroke="#f44336" stroke-width="1" stroke-opacity="1" stroke-miterlimit="10"/></g></g><g clip-path="url(#b8859838ac)"><g clip-path="url(#b1e10a4e40)"><path stroke-linecap="butt" transform="matrix(-0.0632786, 0.000110442, -0.000110442, -0.0632786, 513.42387, 393.916073)" fill="none" stroke-linejoin="miter" d="M 2109.503291 105.507918 L 2187.654784 105.459125 L 2187.667424 664.124428 L 2109.516038 664.11149 Z M 2109.503291 105.507918 " stroke="#f44336" stroke-width="1" stroke-opacity="1" stroke-miterlimit="10"/></g></g><g clip-path="url(#033c2f28f6)"><g clip-path="url(#582c3df650)"><path stroke-linecap="butt" transform="matrix(-0.0632786, 0.000110442, -0.000110442, -0.0632786, 386.364324, 394.137816)" fill="none" stroke-linejoin="miter" d="M 1105.557533 105.469735 L 1183.647188 105.482566 L 1183.659935 664.086138 L 1105.508549 664.0732 Z M 1105.557533 105.469735 " stroke="#f44336" stroke-width="1" stroke-opacity="1" stroke-miterlimit="10"/></g></g><g clip-path="url(#efc41b679f)"><g clip-path="url(#629e73ad0c)"><path fill="#ffffff" d="M 402.496094 430.695312 L 286.808594 430.898438 L 246.171875 377.078125 L 246.117188 345.933594 L 419.15625 345.628906 L 450.359375 377.710938 L 443.441406 379.699219 Z M 402.496094 430.695312 " fill-opacity="1" fill-rule="nonzero"/></g></g><g clip-path="url(#7aa229d6f9)"><g clip-path="url(#f5a3a92e46)"><path fill="#545454" d="M 421.207031 386.332031 L 269.671875 386.597656 L 271.785156 392.03125 L 420.0625 391.773438 Z M 421.207031 386.332031 " fill-opacity="1" fill-rule="nonzero"/></g></g><g clip-path="url(#a91fb42633)"><g clip-path="url(#c6f42cd157)"><path fill="#545454" d="M 379.925781 387.472656 L 374.980469 387.484375 L 374.917969 352.132812 L 379.863281 352.125 Z M 379.925781 387.472656 " fill-opacity="1" fill-rule="nonzero"/></g></g><g clip-path="url(#e2258329a0)"><g clip-path="url(#a5cdd87f78)"><path fill="#545454" d="M 316.394531 387.585938 L 311.453125 387.59375 L 311.390625 352.246094 L 316.335938 352.238281 Z M 316.394531 387.585938 " fill-opacity="1" fill-rule="nonzero"/></g></g><g clip-path="url(#c3f1dcfcf3)"><g clip-path="url(#370f900657)"><path fill="#545454" d="M 419.15625 345.628906 L 450.359375 377.710938 L 443.441406 379.699219 L 414.222656 352.066406 L 241.679688 352.367188 L 241.667969 345.941406 L 246.117188 345.933594 " fill-opacity="1" fill-rule="nonzero"/></g></g><g clip-path="url(#9c707bb63d)"><g clip-path="url(#2612304125)"><path fill="#545454" d="M 466.140625 431.148438 L 449.273438 430.613281 L 411.613281 419.339844 L 414.585938 415.640625 Z M 466.140625 431.148438 " fill-opacity="1" fill-rule="nonzero"/></g></g></svg>